<svg version="1.2" xmlns="http://www.w3.org/2000/svg" viewBox="0 0 606 228" width="500" height="500">
	<title>iStock-1961305304</title>
	<style>
		.s0 { fill: #1d1d1b } 
	</style>
	<g id="Layer 1">
		<g id="&lt;Group&gt;">
			<g id="&lt;Group&gt;">
				<path id="&lt;Path&gt;" class="s0" d="m478.3 148.2q-8.7 0-18.3-1.2c-35.4-4.5-72.6-20.2-99.7-31.6l-3.3-1.4c-11.6-4.9-23-10.3-34.1-15.5-23.8-11.1-48.3-22.5-74.3-29.4-37.2-9.7-70.8-13-99.7-9.7-12.5 1.4-64.9 11.8-82.3 27.1-0.7 0.6-1.7 0.5-2.2-0.1-0.6-0.7-0.5-1.7 0.1-2.3 17.9-15.7 71.3-26.4 84.1-27.8 29.3-3.4 63.2 0 100.8 9.8 26.3 6.9 50.9 18.4 74.8 29.6 11.1 5.2 22.5 10.5 34 15.4l3.3 1.4c55 23.2 147.1 62.1 185-3.5 10.8-18.8 11-43.8 0.5-62.2-9.4-16.4-25.5-25.6-45.5-25.9q-0.3 0-0.5 0c-14.4 0-30.4 8.6-39.9 21.4-7.5 10.1-9.7 21.6-6.3 32.3 3.2 10.1 12.7 18.3 24.2 21 10 2.4 19.4 0 25.8-6.6 4.5-4.5 7.2-12.1 6.9-19-0.2-3.6-1.2-8.6-5.4-12.2-5.5-4.6-15.3-5.8-20.7-0.3-0.6 0.6-1.6 0.7-2.2 0-0.6-0.6-0.6-1.5 0-2.2 6.6-6.8 18.4-5.4 24.9 0.1 4 3.4 6.3 8.4 6.5 14.5 0.4 7.8-2.7 16.2-7.7 21.3-7.3 7.4-17.8 10.1-28.8 7.5-12.5-3-22.9-12.1-26.5-23.1-3.7-11.7-1.3-24.2 6.8-35.2 10-13.6 27-22.6 42.4-22.6q0.3 0 0.5 0c21.2 0.3 38.3 10 48.2 27.4 11.2 19.7 11 45.4-0.5 65.3-14.5 25.1-38.3 37.7-70.9 37.7z"/>
			</g>
			<g id="&lt;Group&gt;">
				<path id="&lt;Path&gt;" class="s0" d="m482.2 128c-16.9 0-32.6-3.8-39.5-5.8q-5.7-1.6-11.4-3.1c-15.9-4.3-32.4-8.8-47.3-15.4-0.8-0.3-1.1-1.3-0.8-2.1 0.4-0.7 1.3-1.1 2.1-0.8 14.6 6.5 31 11 46.8 15.3q5.8 1.5 11.4 3.1c12.7 3.5 55.6 13.5 78.7-6.4 8.9-7.6 17.4-24.1 16.5-40.6-0.7-12.1-6.5-22.3-16.9-29.4-0.7-0.5-0.9-1.5-0.4-2.2 0.5-0.7 1.5-0.9 2.2-0.4 11.2 7.7 17.5 18.7 18.2 31.9 1 17.5-8.1 34.9-17.6 43.1-11.4 9.8-27.1 12.8-42 12.8z"/>
			</g>
			<g id="&lt;Group&gt;">
				<path id="&lt;Path&gt;" class="s0" d="m469.1 167c-13.6 0-25.6-1.5-34.5-3.1-48.7-8.7-92.7-32.6-131.5-53.6-42.7-23-77.2-34.7-112.2-37.7-63.8-5.4-133.8 23.1-178.5 72.7-0.5 0.7-1.5 0.7-2.2 0.1-0.6-0.5-0.7-1.5-0.1-2.2 45.3-50.3 116.4-79.2 181.1-73.7 35.4 3.1 70.3 14.8 113.4 38.1 38.6 20.9 82.4 44.6 130.6 53.2 22 4 64.3 7.6 99.4-12.8 25.9-15.1 47.4-50.5 37.2-81.2-0.3-0.9 0.2-1.7 1-2 0.8-0.3 1.7 0.2 2 1 10.7 32.2-11.7 69.2-38.7 84.9-21.7 12.7-46.2 16.3-67 16.3z"/>
			</g>
			<g id="&lt;Group&gt;">
				<path id="&lt;Path&gt;" class="s0" d="m356.7 94.2q-0.4 0-0.7-0.2c-39.2-22-75.4-36.6-110.7-44.8-0.8-0.2-1.3-1-1.1-1.9 0.2-0.8 1-1.3 1.9-1.1 35.5 8.2 72 23 111.4 45.1 0.7 0.4 1 1.3 0.6 2.1-0.3 0.5-0.8 0.8-1.4 0.8z"/>
			</g>
			<g id="&lt;Group&gt;">
				<path id="&lt;Path&gt;" class="s0" d="m132.3 46.9c-0.7 0-1.4-0.5-1.5-1.2-0.2-0.9 0.4-1.7 1.2-1.9 26.9-5.6 54.9-6.6 83.3-3.1 0.8 0.1 1.4 0.9 1.3 1.7-0.1 0.9-0.9 1.5-1.7 1.4-28-3.5-55.7-2.4-82.3 3.1q-0.1 0-0.3 0z"/>
			</g>
		</g>
	</g>
</svg>